<svg xmlns="http://www.w3.org/2000/svg" viewBox="0 0 400 500" width="400" height="500">
  <rect width="100%" height="100%" fill="#fff"/>
  <g fill="none" stroke="#111" stroke-width="9" stroke-linecap="round" stroke-linejoin="round">
  <path d="M 96 144 C 105.3 144, 115.9 147.4, 124 153.1 C 132.1 158.8, 139.8 168.2, 144.5 178 C 149.2 187.8, 152 200.7, 152 212 C 152 223.3, 149.2 236.2, 144.5 246 C 139.8 255.8, 132.1 265.2, 124 270.9 C 115.9 276.6, 105.3 280, 96 280 C 86.7 280, 76.1 276.6, 68 270.9 C 59.9 265.2, 52.2 255.8, 47.5 246 C 42.8 236.2, 40 223.3, 40 212 C 40 200.7, 42.8 187.8, 47.5 178 C 52.2 168.2, 59.9 158.8, 68 153.1 C 76.1 147.4, 86.7 144, 96 144"/>
  <path d="M 200 68 C 209.3 68, 219.9 71.4, 228 77.1 C 236.1 82.8, 243.8 92.2, 248.5 102 C 253.2 111.8, 256 124.7, 256 136 C 256 147.3, 253.2 160.2, 248.5 170 C 243.8 179.8, 236.1 189.2, 228 194.9 C 219.9 200.6, 209.3 204, 200 204 C 190.7 204, 180.1 200.6, 172 194.9 C 163.9 189.2, 156.2 179.8, 151.5 170 C 146.8 160.2, 144 147.3, 144 136 C 144 124.7, 146.8 111.8, 151.5 102 C 156.2 92.2, 163.9 82.8, 172 77.1 C 180.1 71.4, 190.7 68, 200 68"/>
  <path d="M 304 144 C 313.3 144, 323.9 147.4, 332 153.1 C 340.1 158.8, 347.8 168.2, 352.5 178 C 357.2 187.8, 360 200.7, 360 212 C 360 223.3, 357.2 236.2, 352.5 246 C 347.8 255.8, 340.1 265.2, 332 270.9 C 323.9 276.6, 313.3 280, 304 280 C 294.7 280, 284.1 276.6, 276 270.9 C 267.9 265.2, 260.2 255.8, 255.5 246 C 250.8 236.2, 248 223.3, 248 212 C 248 200.7, 250.8 187.8, 255.5 178 C 260.2 168.2, 267.9 158.8, 276 153.1 C 284.1 147.4, 294.7 144, 304 144"/>
  <path d="M 96 278 C 96.5 278, 104.3 289.6, 104 290 C 103.7 290.4, 88.3 290.4, 88 290 C 87.7 289.6, 95.5 278, 96 278"/>
  <path d="M 200 202 C 200.5 202, 208.3 213.6, 208 214 C 207.7 214.4, 192.3 214.4, 192 214 C 191.7 213.6, 199.5 202, 200 202"/>
  <path d="M 304 278 C 304.5 278, 312.3 289.6, 312 290 C 311.7 290.4, 296.3 290.4, 296 290 C 295.7 289.6, 303.5 278, 304 278"/>
  <path d="M 200 410 C 202.6 410, 205.9 411.3, 207.8 412.9 C 209.6 414.6, 211 417.6, 211 420 C 211 422.4, 209.6 425.4, 207.8 427.1 C 205.9 428.7, 202.6 430, 200 430 C 197.4 430, 194.1 428.7, 192.2 427.1 C 190.4 425.4, 189 422.4, 189 420 C 189 417.6, 190.4 414.6, 192.2 412.9 C 194.1 411.3, 197.4 410, 200 410"/>
  <path d="M 190 418 C 186.5 414.8, 169.6 401.3, 164 400 C 158.4 398.7, 149.9 403.7, 148 408 C 146.1 412.3, 147.6 427.7, 150 432 C 152.4 436.3, 160.7 441.1, 166 440 C 171.3 438.9, 186.8 426.9, 190 424 C 193.2 421.1, 193.5 421.2, 190 418"/>
  <path d="M 210 418 C 213.5 414.8, 230.4 401.3, 236 400 C 241.6 398.7, 250.1 403.7, 252 408 C 253.9 412.3, 252.4 427.7, 250 432 C 247.6 436.3, 239.3 441.1, 234 440 C 228.7 438.9, 213.2 426.9, 210 424 C 206.8 421.1, 206.5 421.2, 210 418"/>
  <path d="M 96 290.3 C 102.9 305.6, 120.3 362, 137.6 382 C 154.9 402, 189.6 405.3, 200 410"/>
  <path d="M 200 214.3 C 201 229.6, 206 273.4, 206 306 C 206 338.6, 201 392.7, 200 410"/>
  <path d="M 304 290.3 C 297.1 305.6, 279.7 362, 262.4 382 C 245.1 402, 210.4 405.3, 200 410"/>
  <path d="M 79.3 171.3 C 80.5 172.1, 81.1 174.5, 80.7 176.8 C 80.3 179.2, 78.7 182.9, 77 185.4 C 75.2 187.9, 72.4 190.8, 70.3 192 C 68.3 193.2, 65.8 193.5, 64.7 192.7 C 63.5 191.9, 62.9 189.5, 63.3 187.2 C 63.7 184.8, 65.3 181.1, 67 178.6 C 68.8 176.1, 71.6 173.2, 73.7 172 C 75.7 170.8, 78.2 170.5, 79.3 171.3"/>
  <path d="M 183.3 95.3 C 184.5 96.1, 185.1 98.5, 184.7 100.8 C 184.3 103.2, 182.7 106.9, 181 109.4 C 179.2 111.9, 176.4 114.8, 174.3 116 C 172.3 117.2, 169.8 117.5, 168.7 116.7 C 167.5 115.9, 166.9 113.5, 167.3 111.2 C 167.7 108.8, 169.3 105.1, 171 102.6 C 172.8 100.1, 175.6 97.2, 177.7 96 C 179.7 94.8, 182.2 94.5, 183.3 95.3"/>
  <path d="M 287.3 171.3 C 288.5 172.1, 289.1 174.5, 288.7 176.8 C 288.3 179.2, 286.7 182.9, 285 185.4 C 283.2 187.9, 280.4 190.8, 278.3 192 C 276.3 193.2, 273.8 193.5, 272.7 192.7 C 271.5 191.9, 270.9 189.5, 271.3 187.2 C 271.7 184.8, 273.3 181.1, 275 178.6 C 276.8 176.1, 279.6 173.2, 281.7 172 C 283.7 170.8, 286.2 170.5, 287.3 171.3"/>
  <path d="M 204 163.8 C 199.9 163.8, 191.5 151.9, 188.6 148.4 C 185.7 144.9, 181.6 140.2, 182 137.4 C 182.4 134.6, 189 127.8, 191.9 127.5 C 194.8 127.2, 200.8 135.2, 204 135.2 C 207.2 135.2, 213.2 127.2, 216.1 127.5 C 219 127.8, 225.6 134.6, 226 137.4 C 226.4 140.2, 222.3 144.9, 219.4 148.4 C 216.5 151.9, 208.1 163.8, 204 163.8"/>
  </g>
</svg>
