<svg xmlns="http://www.w3.org/2000/svg" viewBox="0 0 500 400" width="500" height="400">
  <rect width="100%" height="100%" fill="#fff"/>
  <g fill="none" stroke="#111" stroke-width="9" stroke-linecap="round" stroke-linejoin="round">
  <path d="M 100 310 C 87.1 302.5, 88.8 134.2, 90 130 C 91.3 125.8, 126.7 210.8, 130 210 C 133.3 209.2, 166.7 110, 170 110 C 173.3 110, 206.7 210.8, 210 210 C 213.3 209.2, 246.7 90, 250 90 C 253.3 90, 286.7 209.2, 290 210 C 293.3 210.8, 326.7 110, 330 110 C 333.3 110, 366.7 209.2, 370 210 C 373.3 210.8, 408.8 125.8, 410 130 C 411.3 134.2, 412.9 302.5, 400 310 C 387.1 317.5, 112.9 317.5, 100 310"/>
  <path d="M 91.5 262.3 C 117.9 262.2, 197.2 262, 250 262 C 302.8 262, 382.1 262.2, 408.5 262.3"/>
  <path d="M 90 104 C 92.8 104, 96.5 105.5, 98.5 107.5 C 100.5 109.5, 102 113.2, 102 116 C 102 118.8, 100.5 122.5, 98.5 124.5 C 96.5 126.5, 92.8 128, 90 128 C 87.2 128, 83.5 126.5, 81.5 124.5 C 79.5 122.5, 78 118.8, 78 116 C 78 113.2, 79.5 109.5, 81.5 107.5 C 83.5 105.5, 87.2 104, 90 104"/>
  <path d="M 170 84 C 172.8 84, 176.5 85.5, 178.5 87.5 C 180.5 89.5, 182 93.2, 182 96 C 182 98.8, 180.5 102.5, 178.5 104.5 C 176.5 106.5, 172.8 108, 170 108 C 167.2 108, 163.5 106.5, 161.5 104.5 C 159.5 102.5, 158 98.8, 158 96 C 158 93.2, 159.5 89.5, 161.5 87.5 C 163.5 85.5, 167.2 84, 170 84"/>
  <path d="M 250 64 C 252.8 64, 256.5 65.5, 258.5 67.5 C 260.5 69.5, 262 73.2, 262 76 C 262 78.8, 260.5 82.5, 258.5 84.5 C 256.5 86.5, 252.8 88, 250 88 C 247.2 88, 243.5 86.5, 241.5 84.5 C 239.5 82.5, 238 78.8, 238 76 C 238 73.2, 239.5 69.5, 241.5 67.5 C 243.5 65.5, 247.2 64, 250 64"/>
  <path d="M 330 84 C 332.8 84, 336.5 85.5, 338.5 87.5 C 340.5 89.5, 342 93.2, 342 96 C 342 98.8, 340.5 102.5, 338.5 104.5 C 336.5 106.5, 332.8 108, 330 108 C 327.2 108, 323.5 106.5, 321.5 104.5 C 319.5 102.5, 318 98.8, 318 96 C 318 93.2, 319.5 89.5, 321.5 87.5 C 323.5 85.5, 327.2 84, 330 84"/>
  <path d="M 410 104 C 412.8 104, 416.5 105.5, 418.5 107.5 C 420.5 109.5, 422 113.2, 422 116 C 422 118.8, 420.5 122.5, 418.5 124.5 C 416.5 126.5, 412.8 128, 410 128 C 407.2 128, 403.5 126.5, 401.5 124.5 C 399.5 122.5, 398 118.8, 398 116 C 398 113.2, 399.5 109.5, 401.5 107.5 C 403.5 105.5, 407.2 104, 410 104"/>
  <path d="M 250 270 C 251.6 270, 266 284.4, 266 286 C 266 287.6, 251.6 302, 250 302 C 248.4 302, 234 287.6, 234 286 C 234 284.4, 248.4 270, 250 270"/>
  <path d="M 170 274 C 172.8 274, 176.5 275.5, 178.5 277.5 C 180.5 279.5, 182 283.2, 182 286 C 182 288.8, 180.5 292.5, 178.5 294.5 C 176.5 296.5, 172.8 298, 170 298 C 167.2 298, 163.5 296.5, 161.5 294.5 C 159.5 292.5, 158 288.8, 158 286 C 158 283.2, 159.5 279.5, 161.5 277.5 C 163.5 275.5, 167.2 274, 170 274"/>
  <path d="M 330 274 C 332.8 274, 336.5 275.5, 338.5 277.5 C 340.5 279.5, 342 283.2, 342 286 C 342 288.8, 340.5 292.5, 338.5 294.5 C 336.5 296.5, 332.8 298, 330 298 C 327.2 298, 323.5 296.5, 321.5 294.5 C 319.5 292.5, 318 288.8, 318 286 C 318 283.2, 319.5 279.5, 321.5 277.5 C 323.5 275.5, 327.2 274, 330 274"/>
  <path d="M 170 178 C 171.2 178, 182 194.2, 182 196 C 182 197.8, 171.2 214, 170 214 C 168.8 214, 158 197.8, 158 196 C 158 194.2, 168.8 178, 170 178"/>
  <path d="M 250 158 C 251.2 158, 262 174.2, 262 176 C 262 177.8, 251.2 194, 250 194 C 248.8 194, 238 177.8, 238 176 C 238 174.2, 248.8 158, 250 158"/>
  <path d="M 330 178 C 331.2 178, 342 194.2, 342 196 C 342 197.8, 331.2 214, 330 214 C 328.8 214, 318 197.8, 318 196 C 318 194.2, 328.8 178, 330 178"/>
  <path d="M 56 52 C 57.4 52, 57.3 62.3, 60.1 64.3 C 63 66.4, 72.7 63.1, 73.1 64.4 C 73.5 65.7, 63.7 68.8, 62.7 72.2 C 61.6 75.5, 67.7 83.8, 66.6 84.6 C 65.5 85.4, 59.5 77, 56 77 C 52.5 77, 46.5 85.4, 45.4 84.6 C 44.3 83.8, 50.4 75.5, 49.3 72.2 C 48.3 68.8, 38.5 65.7, 38.9 64.4 C 39.3 63.1, 49 66.4, 51.9 64.3 C 54.7 62.3, 54.6 52, 56 52"/>
  <path d="M 446 44 C 447.2 44, 447 53.3, 449.5 55.1 C 452.1 57, 460.9 53.9, 461.2 55.1 C 461.6 56.2, 452.7 58.9, 451.7 61.9 C 450.7 64.8, 456.4 72.3, 455.4 72.9 C 454.5 73.6, 449.1 66, 446 66 C 442.9 66, 437.5 73.6, 436.6 72.9 C 435.6 72.3, 441.3 64.8, 440.3 61.9 C 439.3 58.9, 430.4 56.2, 430.8 55.1 C 431.1 53.9, 439.9 57, 442.5 55.1 C 445 53.3, 444.8 44, 446 44"/>
  </g>
</svg>
