<svg xmlns="http://www.w3.org/2000/svg" viewBox="0 0 400 500" width="400" height="500">
  <rect width="100%" height="100%" fill="#fff"/>
  <g fill="none" stroke="#111" stroke-width="9" stroke-linecap="round" stroke-linejoin="round">
  <path d="M 200 90 C 218.7 90, 254.5 96, 270 104 C 285.5 112, 308 134.5, 316 150 C 324 165.5, 327.9 200, 330 220 C 332.1 240, 331.2 278.7, 332 300 C 332.8 321.3, 336.8 364, 336 380 C 335.2 396, 331.3 416.8, 326 420 C 320.7 423.2, 303.7 402.4, 296 404 C 288.3 405.6, 275.5 431.7, 268 432 C 260.5 432.3, 247.5 406, 240 406 C 232.5 406, 219.5 432, 212 432 C 204.5 432, 191.5 406, 184 406 C 176.5 406, 163.5 432, 156 432 C 148.5 432, 135.7 407.6, 128 406 C 120.3 404.4, 106.3 423.5, 98 420 C 89.7 416.5, 70 396, 66 380 C 62 364, 67.5 321.3, 68 300 C 68.5 278.7, 67.9 240, 70 220 C 72.1 200, 76 165.5, 84 150 C 92 134.5, 114.5 112, 130 104 C 145.5 96, 181.3 90, 200 90"/>
  <path d="M 68.5 250 C 64.1 251.6, 47.4 254.3, 42 260 C 36.6 265.7, 31.6 279, 36 284 C 40.4 289, 62.8 289, 68.2 290"/>
  <path d="M 331.4 250 C 335.8 251.6, 352.6 254.3, 358 260 C 363.4 265.7, 368.4 279, 364 284 C 359.6 289, 337.1 289, 331.7 290"/>
  <path d="M 164 180 C 167.3 180, 171.6 182.5, 173.9 185.9 C 176.2 189.2, 178 195.3, 178 200 C 178 204.7, 176.2 210.8, 173.9 214.1 C 171.6 217.5, 167.3 220, 164 220 C 160.7 220, 156.4 217.5, 154.1 214.1 C 151.8 210.8, 150 204.7, 150 200 C 150 195.3, 151.8 189.2, 154.1 185.9 C 156.4 182.5, 160.7 180, 164 180"/>
  <path d="M 236 180 C 239.3 180, 243.6 182.5, 245.9 185.9 C 248.2 189.2, 250 195.3, 250 200 C 250 204.7, 248.2 210.8, 245.9 214.1 C 243.6 217.5, 239.3 220, 236 220 C 232.7 220, 228.4 217.5, 226.1 214.1 C 223.8 210.8, 222 204.7, 222 200 C 222 195.3, 223.8 189.2, 226.1 185.9 C 228.4 182.5, 232.7 180, 236 180"/>
  <path d="M 200 238 C 202.8 238, 206.5 239.8, 208.5 242.1 C 210.5 244.4, 212 248.7, 212 252 C 212 255.3, 210.5 259.6, 208.5 261.9 C 206.5 264.2, 202.8 266, 200 266 C 197.2 266, 193.5 264.2, 191.5 261.9 C 189.5 259.6, 188 255.3, 188 252 C 188 248.7, 189.5 244.4, 191.5 242.1 C 193.5 239.8, 197.2 238, 200 238"/>
  <path d="M 128 234 C 131.8 234, 136.6 235.3, 139.3 236.9 C 142 238.6, 144 241.6, 144 244 C 144 246.4, 142 249.4, 139.3 251.1 C 136.6 252.7, 131.8 254, 128 254 C 124.2 254, 119.4 252.7, 116.7 251.1 C 114 249.4, 112 246.4, 112 244 C 112 241.6, 114 238.6, 116.7 236.9 C 119.4 235.3, 124.2 234, 128 234"/>
  <path d="M 272 234 C 275.8 234, 280.6 235.3, 283.3 236.9 C 286 238.6, 288 241.6, 288 244 C 288 246.4, 286 249.4, 283.3 251.1 C 280.6 252.7, 275.8 254, 272 254 C 268.2 254, 263.4 252.7, 260.7 251.1 C 258 249.4, 256 246.4, 256 244 C 256 241.6, 258 238.6, 260.7 236.9 C 263.4 235.3, 268.2 234, 272 234"/>
  <path d="M 334 50 C 335.6 50, 335.5 61.2, 338.7 63.5 C 341.9 65.8, 352.5 62.3, 353 63.8 C 353.5 65.3, 342.8 68.7, 341.6 72.5 C 340.4 76.2, 347 85.3, 345.8 86.2 C 344.5 87.1, 337.9 78, 334 78 C 330.1 78, 323.5 87.1, 322.2 86.2 C 321 85.3, 327.6 76.2, 326.4 72.5 C 325.2 68.7, 314.5 65.3, 315 63.8 C 315.5 62.3, 326.1 65.8, 329.3 63.5 C 332.5 61.2, 332.4 50, 334 50"/>
  <path d="M 60 106 C 61.2 106, 61.3 113.5, 63.5 115.1 C 65.7 116.8, 73 114.6, 73.3 115.7 C 73.7 116.8, 66.6 119.2, 65.7 121.9 C 64.9 124.5, 69.2 130.6, 68.2 131.3 C 67.3 132, 62.7 126, 60 126 C 57.3 126, 52.7 132, 51.8 131.3 C 50.8 130.6, 55.1 124.5, 54.3 121.9 C 53.4 119.2, 46.3 116.8, 46.7 115.7 C 47 114.6, 54.3 116.8, 56.5 115.1 C 58.7 113.5, 58.8 106, 60 106"/>
  </g>
</svg>
