<svg xmlns="http://www.w3.org/2000/svg" viewBox="0 0 400 500" width="400" height="500">
  <rect width="100%" height="100%" fill="#fff"/>
  <g fill="none" stroke="#111" stroke-width="9" stroke-linecap="round" stroke-linejoin="round">
  <path d="M 200 40 C 227 40, 270.5 49, 290 64 C 309.5 79, 327 115.1, 330 140 C 333 164.9, 320.5 206, 310 230 C 299.5 254, 272 286.5, 260 300 C 248 313.5, 243.5 317, 230 320 C 216.5 323, 183.5 323, 170 320 C 156.5 317, 152 313.5, 140 300 C 128 286.5, 100.5 254, 90 230 C 79.5 206, 67 164.9, 70 140 C 73 115.1, 90.5 79, 110 64 C 129.5 49, 173 40, 200 40"/>
  <path d="M 200 40 C 200 63.3, 200 133, 200 180 C 200 227, 200 298.5, 200 322.2"/>
  <path d="M 155.5 45.6 C 150.2 66.3, 120 124, 124 170 C 128 216, 170.4 296.2, 179.7 321.4"/>
  <path d="M 244.5 45.6 C 249.8 66.3, 280 124, 276 170 C 272 216, 229.6 296.2, 220.3 321.4"/>
  <path d="M 90.3 230.7 C 108.6 233, 163.4 244, 200 244 C 236.6 244, 291.4 233, 309.7 230.7"/>
  <path d="M 160 400 C 161.3 399, 197.3 400, 200 400 C 202.7 400, 238.7 399, 240 400 C 241.3 401, 240 428, 240 430 C 240 432, 241.3 459, 240 460 C 238.7 461, 202.7 460, 200 460 C 197.3 460, 161.3 461, 160 460 C 158.7 459, 160 432, 160 430 C 160 428, 158.7 401, 160 400"/>
  <path d="M 173.6 320.7 C 172.7 327.2, 169.6 346.8, 168 360 C 166.4 373.2, 164.7 393, 164 399.6"/>
  <path d="M 226.4 320.7 C 227.3 327.2, 230.4 346.8, 232 360 C 233.6 373.2, 235.3 393, 236 399.6"/>
  <path d="M 160 430 C 166.7 430, 186.7 430, 200 430 C 213.3 430, 233.3 430, 240 430"/>
  <path d="M 187 399.7 C 187 409.8, 187 450.2, 187 460.3"/>
  <path d="M 213 399.7 C 213 409.8, 213 450.2, 213 460.3"/>
  <path d="M 242 414 C 243.9 411.3, 253.3 415.3, 256 418 C 258.7 420.7, 262.5 430.5, 262 434 C 261.5 437.5, 254.7 443.5, 252 444 C 249.3 444.5, 243.3 442, 242 438 C 240.7 434, 240.1 416.7, 242 414"/>
  <path d="M 30 384 C 23.9 382.1, 22.7 375.5, 24 372 C 25.3 368.5, 35.5 361.2, 40 358 C 44.5 354.8, 52.7 349.6, 58 348 C 63.3 346.4, 74.7 344.7, 80 346 C 85.3 347.3, 93.5 355.1, 98 358 C 102.5 360.9, 112.1 364.5, 114 368 C 115.9 371.5, 117.9 381.6, 112 384 C 106.1 386.4, 80.9 386, 70 386 C 59.1 386, 36.1 385.9, 30 384"/>
  <path d="M 298 342 C 291.9 340.1, 290.7 333.5, 292 330 C 293.3 326.5, 303.5 319.2, 308 316 C 312.5 312.8, 320.7 307.6, 326 306 C 331.3 304.4, 342.7 302.7, 348 304 C 353.3 305.3, 361.5 313.1, 366 316 C 370.5 318.9, 380.1 322.5, 382 326 C 383.9 329.5, 385.9 339.6, 380 342 C 374.1 344.4, 348.9 344, 338 344 C 327.1 344, 304.1 343.9, 298 342"/>
  <path d="M 356 32 C 360.7 32, 366.3 33.8, 370.1 36.6 C 373.9 39.3, 377.4 44.1, 378.8 48.6 C 380.3 53.1, 380.3 58.9, 378.8 63.4 C 377.4 67.9, 373.9 72.7, 370.1 75.4 C 366.3 78.2, 360.7 80, 356 80 C 351.3 80, 345.7 78.2, 341.9 75.4 C 338.1 72.7, 334.6 67.9, 333.2 63.4 C 331.7 58.9, 331.7 53.1, 333.2 48.6 C 334.6 44.1, 338.1 39.3, 341.9 36.6 C 345.7 33.8, 351.3 32, 356 32"/>
  </g>
</svg>
