<svg xmlns="http://www.w3.org/2000/svg" viewBox="0 0 400 500" width="400" height="500">
  <rect width="100%" height="100%" fill="#fff"/>
  <g fill="none" stroke="#111" stroke-width="9" stroke-linecap="round" stroke-linejoin="round">
  <path d="M 200 134 C 221.7 134, 245.5 138.6, 265.1 146.7 C 284.6 154.7, 303.7 167.7, 317.3 182.2 C 330.8 196.7, 341.4 215.5, 346.2 233.5 C 351.1 251.6, 351.1 272.4, 346.2 290.5 C 341.4 308.5, 330.8 327.3, 317.3 341.8 C 303.7 356.3, 284.6 369.3, 265.1 377.3 C 245.5 385.4, 221.7 390, 200 390 C 178.3 390, 154.5 385.4, 134.9 377.3 C 115.4 369.3, 96.3 356.3, 82.7 341.8 C 69.2 327.3, 58.6 308.5, 53.8 290.5 C 48.9 272.4, 48.9 251.6, 53.8 233.5 C 58.6 215.5, 69.2 196.7, 82.7 182.2 C 96.3 167.7, 115.4 154.7, 134.9 146.7 C 154.5 138.6, 178.3 134, 200 134"/>
  <path d="M 91.9 173.3 C 88.6 168.8, 75.7 156.9, 72 146 C 68.3 135.1, 66.7 116.3, 70 108 C 73.3 99.7, 82.3 95.3, 92 96 C 101.7 96.7, 117 104.8, 128 112 C 139 119.2, 152.8 134.7, 157.8 139.3"/>
  <path d="M 308.1 173.3 C 311.4 168.8, 324.3 156.9, 328 146 C 331.7 135.1, 333.3 116.3, 330 108 C 326.7 99.7, 317.7 95.3, 308 96 C 298.3 96.7, 283 104.8, 272 112 C 261 119.2, 247.2 134.7, 242.2 139.3"/>
  <path d="M 200 250 C 210.3 250, 222.1 252.1, 231 255.6 C 239.9 259.1, 248.5 264.9, 253.7 271 C 258.9 277.1, 262 285, 262 292 C 262 299, 258.9 306.9, 253.7 313 C 248.5 319.1, 239.9 324.9, 231 328.4 C 222.1 331.9, 210.3 334, 200 334 C 189.7 334, 177.9 331.9, 169 328.4 C 160.1 324.9, 151.5 319.1, 146.3 313 C 141.1 306.9, 138 299, 138 292 C 138 285, 141.1 277.1, 146.3 271 C 151.5 264.9, 160.1 259.1, 169 255.6 C 177.9 252.1, 189.7 250, 200 250"/>
  <path d="M 180 277 C 182.1 277, 184.9 278.9, 186.4 281.4 C 187.9 283.9, 189 288.5, 189 292 C 189 295.5, 187.9 300.1, 186.4 302.6 C 184.9 305.1, 182.1 307, 180 307 C 177.9 307, 175.1 305.1, 173.6 302.6 C 172.1 300.1, 171 295.5, 171 292 C 171 288.5, 172.1 283.9, 173.6 281.4 C 175.1 278.9, 177.9 277, 180 277"/>
  <path d="M 220 277 C 222.1 277, 224.9 278.9, 226.4 281.4 C 227.9 283.9, 229 288.5, 229 292 C 229 295.5, 227.9 300.1, 226.4 302.6 C 224.9 305.1, 222.1 307, 220 307 C 217.9 307, 215.1 305.1, 213.6 302.6 C 212.1 300.1, 211 295.5, 211 292 C 211 288.5, 212.1 283.9, 213.6 281.4 C 215.1 278.9, 217.9 277, 220 277"/>
  <path d="M 146 205 C 148.4 205, 151.4 206.6, 153.1 208.8 C 154.7 211, 156 214.9, 156 218 C 156 221.1, 154.7 225, 153.1 227.2 C 151.4 229.4, 148.4 231, 146 231 C 143.6 231, 140.6 229.4, 138.9 227.2 C 137.3 225, 136 221.1, 136 218 C 136 214.9, 137.3 211, 138.9 208.8 C 140.6 206.6, 143.6 205, 146 205"/>
  <path d="M 254 205 C 256.4 205, 259.4 206.6, 261.1 208.8 C 262.7 211, 264 214.9, 264 218 C 264 221.1, 262.7 225, 261.1 227.2 C 259.4 229.4, 256.4 231, 254 231 C 251.6 231, 248.6 229.4, 246.9 227.2 C 245.3 225, 244 221.1, 244 218 C 244 214.9, 245.3 211, 246.9 208.8 C 248.6 206.6, 251.6 205, 254 205"/>
  <path d="M 112 289 C 116.2 289, 121.7 290.4, 124.7 292.2 C 127.7 294.1, 130 297.4, 130 300 C 130 302.6, 127.7 305.9, 124.7 307.8 C 121.7 309.6, 116.2 311, 112 311 C 107.8 311, 102.3 309.6, 99.3 307.8 C 96.3 305.9, 94 302.6, 94 300 C 94 297.4, 96.3 294.1, 99.3 292.2 C 102.3 290.4, 107.8 289, 112 289"/>
  <path d="M 288 289 C 292.2 289, 297.7 290.4, 300.7 292.2 C 303.7 294.1, 306 297.4, 306 300 C 306 302.6, 303.7 305.9, 300.7 307.8 C 297.7 309.6, 292.2 311, 288 311 C 283.8 311, 278.3 309.6, 275.3 307.8 C 272.3 305.9, 270 302.6, 270 300 C 270 297.4, 272.3 294.1, 275.3 292.2 C 278.3 290.4, 283.8 289, 288 289"/>
  <path d="M 178 348 C 180.1 347.2, 194.1 355, 200 355 C 205.9 355, 219.9 347.2, 222 348 C 224.1 348.8, 218.9 358.3, 216 361 C 213.1 363.7, 204.3 368, 200 368 C 195.7 368, 186.9 363.7, 184 361 C 181.1 358.3, 175.9 348.8, 178 348"/>
  </g>
</svg>
