<svg xmlns="http://www.w3.org/2000/svg" viewBox="0 0 1200 630" width="1200" height="630">
  <!-- 이 파일은 scripts/gen-og.mjs 가 favicon.svg 에서 만든다. 손으로 고치지 마라. -->
  <defs>
    <radialGradient id="bg" cx="50%" cy="35%" r="80%">
      <stop offset="0%" stop-color="#1F3468"/>
      <stop offset="100%" stop-color="#0C1730"/>
    </radialGradient>
  </defs>
  <rect width="1200" height="630" fill="url(#bg)"/>
  <rect x="0" y="0" width="1200" height="14" fill="#E4576E"/>
  <rect x="0" y="616" width="1200" height="14" fill="#E4576E"/>
  <g transform="translate(170,200) rotate(-12)">
    <svg x="0" y="0" width="180" height="180" viewBox="0 0 100 100">
      <rect width="100" height="100" rx="24" fill="#E4576E"/>
      <path d="M20 36h34a10 10 0 0 1 10 10v14a10 10 0 0 1-10 10H38L24 82V70h-4a10 10 0 0 1-10-10V46a10 10 0 0 1 10-10z" fill="#FFFFFF"/>
      <path d="M24 44h26v20h-7V51H24z" fill="#E4576E"/>
      <circle cx="76" cy="24" r="14" fill="#FFFFFF"/>
      <path d="M76 15.5 V24.5 L82.5 28.5" fill="none" stroke="#152447" stroke-width="4.4" stroke-linecap="round" stroke-linejoin="round"/>
    </svg>
  </g>
  <rect x="420" y="190" width="660" height="250" rx="36" fill="#FFFFFF"/>
  <text x="750" y="300" text-anchor="middle" font-family="Pretendard, sans-serif" font-size="84" font-weight="900" fill="#152447">짬짬이 낱말</text>
  <text x="750" y="378" text-anchor="middle" font-family="Pretendard, sans-serif" font-size="27" font-weight="700" fill="#7A8499">보기 없이 반 전체가 입으로 외치는 말놀이</text>
  <text x="600" y="560" text-anchor="middle" font-family="Pretendard, sans-serif" font-size="30" font-weight="700" fill="#FFFFFF">교사는 딸깍 세 번 · 설치 없음 · 로그인 없음</text>
</svg>
